<svg width="245" height="72" viewBox="0 0 245 72" fill="none" xmlns="http://www.w3.org/2000/svg">
<path fill-rule="evenodd" clip-rule="evenodd" d="M58.0303 71.9999H28.2127L28.2127 71.9997H29.6439L29.4102 39.9991L29.4087 40.0393C29.4362 38.4842 29.9331 32.0112 36.0348 26.1745C40.8334 21.5844 45.2884 20.4255 49.1777 20.4255H59.1872L59.1874 20.5108L58.0303 71.9999ZM59.3267 71.9999H59.3269L59.3146 67.4727L59.3267 71.9999Z" fill="white"/>
<path fill-rule="evenodd" clip-rule="evenodd" d="M88.9084 50.2197V3.56095C88.9084 -0.318736 85.4612 0.00684854 85.4612 0.00684854H80.1267C80.1267 0.00684854 72.1511 -0.434853 65.9027 5.77629C59.345 12.2948 59.1961 20.0974 59.1961 20.0974L59.1833 20.682L59.189 20.4276L59.3264 71.9996H67.0525C69.1437 71.9996 77.0391 71.1686 83.0539 64.3063C89.0688 57.444 88.9084 50.2197 88.9084 50.2197Z" fill="white"/>
<path fill-rule="evenodd" clip-rule="evenodd" d="M29.3953 40.3889L28.1826 71.9997H29.6439L29.414 40.5063L29.6764 71.9998H3.38834C3.38834 71.9998 0.259322 71.927 0.259322 69.4976V60.017C0.259322 60.017 0.142706 53.0385 5.57348 47.1757C11.0042 41.3152 17.4818 40.5434 19.4997 40.5434C21.4621 40.5434 28.9826 40.397 29.3953 40.3889Z" fill="white"/>
<path d="M120.978 26.4821H128.388V55.9281H120.978V52.8157C119.533 54.1863 118.081 55.1744 116.626 55.7801C115.172 56.3834 113.594 56.6862 111.895 56.6862C108.082 56.6862 104.783 55.2109 102 52.2601C99.2162 49.3094 97.8257 45.6437 97.8257 41.2586C97.8257 36.7118 99.1728 32.9869 101.865 30.0817C104.557 27.1765 107.829 25.7239 111.679 25.7239C113.45 25.7239 115.113 26.0586 116.665 26.7257C118.22 27.3928 119.656 28.3946 120.976 29.7288L120.978 26.4821ZM113.19 32.5452C110.9 32.5452 108.998 33.3535 107.482 34.9677C105.968 36.582 105.21 38.6539 105.21 41.1789C105.21 43.7221 105.982 45.8167 107.523 47.4583C109.064 49.0999 110.964 49.9218 113.217 49.9218C115.544 49.9218 117.474 49.1136 119.006 47.4993C120.538 45.885 121.305 43.7699 121.305 41.1516C121.305 38.5901 120.538 36.5137 119.006 34.9268C117.471 33.3398 115.533 32.5452 113.19 32.5452Z" fill="white"/>
<path d="M138.77 14.3582C140.069 14.3582 141.183 14.8272 142.113 15.7652C143.042 16.7033 143.506 17.8394 143.506 19.1759C143.506 20.4942 143.047 21.6166 142.126 22.5456C141.206 23.4745 140.106 23.939 138.825 23.939C137.507 23.939 136.384 23.4654 135.455 22.5182C134.525 21.5711 134.062 20.4213 134.062 19.0666C134.062 17.7665 134.521 16.6577 135.441 15.7379C136.361 14.8181 137.471 14.3582 138.77 14.3582ZM135.064 26.4822H142.473V55.9282H135.064V26.4822Z" fill="white"/>
<path d="M147.469 26.482H153.821V30.1909C154.509 28.7292 155.422 27.6204 156.564 26.8622C157.703 26.104 158.952 25.7261 160.308 25.7261C161.267 25.7261 162.272 25.9788 163.322 26.4843L161.016 32.8434C160.149 32.4108 159.432 32.1945 158.872 32.1945C157.733 32.1945 156.769 32.898 155.981 34.3051C155.194 35.7122 154.801 38.4739 154.801 42.5859L154.828 44.0203V55.928H147.474V26.482H147.469Z" fill="white"/>
<path d="M186.982 26.4821H194.392V55.9281H186.982V52.8157C185.537 54.1863 184.085 55.1744 182.63 55.7801C181.176 56.3834 179.598 56.6862 177.899 56.6862C174.086 56.6862 170.787 55.2109 168.003 52.2601C165.22 49.3094 163.83 45.6437 163.83 41.2586C163.83 36.7118 165.177 32.9869 167.869 30.0817C170.561 27.1765 173.833 25.7239 177.682 25.7239C179.454 25.7239 181.117 26.0586 182.669 26.7257C184.224 27.3928 185.66 28.3946 186.98 29.7288L186.982 26.4821ZM179.194 32.5452C176.904 32.5452 175.002 33.3535 173.486 34.9677C171.97 36.582 171.214 38.6539 171.214 41.1789C171.214 43.7221 171.983 45.8167 173.527 47.4583C175.068 49.0999 176.965 49.9218 179.221 49.9218C181.548 49.9218 183.477 49.1136 185.01 47.4993C186.542 45.885 187.309 43.7699 187.309 41.1516C187.309 38.5901 186.542 36.5137 185.01 34.9268C183.477 33.3398 181.539 32.5452 179.194 32.5452Z" fill="white"/>
<path d="M201.07 15.116H208.479V55.9301H201.07V15.116Z" fill="white"/>
<path d="M229.08 25.7261C231.865 25.7261 234.484 26.4205 236.936 27.8094C239.389 29.1982 241.302 31.0834 242.677 33.465C244.051 35.8465 244.741 38.417 244.741 41.1788C244.741 43.9565 244.049 46.5566 242.665 48.9723C241.282 51.3903 239.396 53.2801 237.007 54.6416C234.619 56.0031 231.986 56.6839 229.109 56.6839C224.876 56.6839 221.262 55.1812 218.266 52.1781C215.27 49.1727 213.775 45.5252 213.775 41.2312C213.775 36.6297 215.466 32.7956 218.85 29.7287C221.814 27.0603 225.225 25.7261 229.08 25.7261ZM229.203 32.6817C226.901 32.6817 224.983 33.4809 223.453 35.0769C221.924 36.673 221.156 38.7176 221.156 41.2061C221.156 43.7675 221.912 45.844 223.426 47.4309C224.94 49.0201 226.856 49.8125 229.175 49.8125C231.495 49.8125 233.425 49.011 234.966 47.4036C236.507 45.7985 237.277 43.7311 237.277 41.2061C237.277 38.6811 236.519 36.6275 235.007 35.0496C233.493 33.4695 231.559 32.6817 229.203 32.6817Z" fill="white"/>
</svg>
