<svg width="138" height="106" viewBox="0 0 138 106" fill="none" xmlns="http://www.w3.org/2000/svg">
<path d="M137.034 7.44907C137.034 3.87239 134.14 0.971191 130.57 0.971191H126.833L70.6726 58.9975C69.4936 60.2157 67.5402 60.2157 66.3612 58.9975L10.201 0.971191H6.46067C2.89379 0.971191 0 3.87269 0 7.44907V99.1617C0 102.738 6.63413 105.64 10.201 105.64V13.3675L62.7538 69.5271C65.8862 72.8745 71.1852 72.9101 74.3624 69.6051L128.426 13.3662V105.64C131.997 105.64 137.034 102.739 137.034 99.1627V7.44907Z" fill="white"/>
<mask id="path-2-inside-1_984_619" fill="white">
<path d="M0 15.9712C0 7.68693 6.71573 0.971191 15 0.971191H122.034C130.318 0.971191 137.034 7.68692 137.034 15.9712V90.6404C137.034 98.9247 130.318 105.64 122.034 105.64H15C6.71572 105.64 0 98.9247 0 90.6404V15.9712Z"/>
</mask>
<path d="M0 15.9712C0 -0.597351 13.4315 -14.0288 30 -14.0288H107.034C123.603 -14.0288 137.034 -0.597351 137.034 15.9712C137.034 15.9712 130.318 15.9712 122.034 15.9712H15C6.71573 15.9712 0 15.9712 0 15.9712ZM137.034 90.6404C137.034 107.209 123.603 120.64 107.034 120.64H30C13.4315 120.64 0 107.209 0 90.6404C0 90.6404 6.71573 90.6404 15 90.6404H122.034C130.318 90.6404 137.034 90.6404 137.034 90.6404ZM0 105.64V0.971191V105.64ZM137.034 0.971191V105.64V0.971191Z" fill="white" mask="url(#path-2-inside-1_984_619)"/>
</svg>
