<svg width="37" height="27" viewBox="0 0 37 27" fill="none" xmlns="http://www.w3.org/2000/svg">
<path fill-rule="evenodd" clip-rule="evenodd" d="M1.12418 2.68916L10.85 0L20.15 3L30.0121 0.273158C30.5072 0.136268 31 0.496012 31 0.994297V22.8686C31 23.5383 30.5412 24.1268 29.8758 24.3108L20.15 27L10.85 24L0.987908 26.7268C0.49283 26.8637 0 26.504 0 26.0057V4.13145C0 3.4617 0.458761 2.87315 1.12418 2.68916ZM20.15 6L10.85 3V21L20.15 24V6Z" fill="white"/>
<circle cx="29" cy="19" r="8" fill="#566472"/>
<path d="M31.4364 20.5019C31.9482 19.8001 32.2503 18.9352 32.2503 18.0002C32.2503 15.6529 30.3475 13.75 28.0002 13.75C25.6529 13.75 23.75 15.6529 23.75 18.0002C23.75 20.3475 25.6529 22.2503 28.0002 22.2503C28.9352 22.2503 29.8001 21.9482 30.5019 21.4364C30.5376 21.5549 30.6021 21.6628 30.6897 21.7504L33.1161 24.1768C33.2137 24.2744 33.372 24.2744 33.4696 24.1768L34.1768 23.4696C34.2744 23.372 34.2744 23.2137 34.1768 23.1161L31.7504 20.6897C31.6628 20.6021 31.5549 20.5376 31.4364 20.5019ZM30.7503 18.0002C30.7503 19.519 29.519 20.7503 28.0002 20.7503C26.4813 20.7503 25.25 19.519 25.25 18.0002C25.25 16.4813 26.4813 15.25 28.0002 15.25C29.519 15.25 30.7503 16.4813 30.7503 18.0002Z" fill="white" stroke="white" stroke-width="0.5" stroke-linejoin="round"/>
</svg>
